<svg xmlns="http://www.w3.org/2000/svg" width="373" height="76" viewBox="0 0 373 76" fill="none"><path d="M137.744 9.248L134.792 26H131.408L134.384 9.248H137.744ZM152.464 9.248L151.984 11.888H147.544L145.048 26H141.664L144.16 11.888H139.696L140.176 9.248H152.464ZM162.787 22.808H156.091L154.435 26H150.907L159.907 9.224H163.819L166.867 26H163.315L162.787 22.808ZM162.355 20.192L161.155 13.088L157.459 20.192H162.355ZM172.959 23.432H178.479L178.023 26H169.119L172.095 9.248H175.455L172.959 23.432ZM187.983 26.168C186.575 26.168 185.327 25.872 184.239 25.28C183.167 24.672 182.335 23.84 181.743 22.784C181.151 21.712 180.855 20.488 180.855 19.112C180.855 17.192 181.279 15.464 182.127 13.928C182.991 12.392 184.175 11.192 185.679 10.328C187.199 9.448 188.903 9.008 190.791 9.008C192.215 9.008 193.463 9.304 194.535 9.896C195.623 10.488 196.463 11.32 197.055 12.392C197.647 13.448 197.943 14.656 197.943 16.016C197.943 17.968 197.519 19.712 196.671 21.248C195.823 22.784 194.639 23.992 193.119 24.872C191.599 25.736 189.887 26.168 187.983 26.168ZM188.463 23.072C189.663 23.072 190.719 22.768 191.631 22.16C192.559 21.552 193.271 20.736 193.767 19.712C194.279 18.672 194.535 17.544 194.535 16.328C194.535 15.016 194.167 13.984 193.431 13.232C192.695 12.48 191.663 12.104 190.335 12.104C189.151 12.104 188.095 12.408 187.167 13.016C186.255 13.624 185.543 14.44 185.031 15.464C184.535 16.488 184.287 17.608 184.287 18.824C184.287 20.136 184.647 21.176 185.367 21.944C186.103 22.696 187.135 23.072 188.463 23.072ZM219.968 13.568C219.808 14.544 219.408 15.36 218.768 16.016C218.144 16.656 217.376 17.12 216.464 17.408C217.232 17.568 217.848 17.952 218.312 18.56C218.792 19.168 219.032 19.888 219.032 20.72C219.032 20.944 219.008 21.192 218.96 21.464C218.736 22.824 218.048 23.92 216.896 24.752C215.76 25.584 214.336 26 212.624 26H205.4L208.376 9.248H215.288C216.808 9.248 217.976 9.568 218.792 10.208C219.624 10.848 220.04 11.704 220.04 12.776C220.04 13.032 220.016 13.296 219.968 13.568ZM216.464 14.072C216.48 13.976 216.488 13.832 216.488 13.64C216.488 13.08 216.304 12.648 215.936 12.344C215.568 12.04 215.032 11.888 214.328 11.888H211.28L210.512 16.208H213.584C214.368 16.208 215.016 16.024 215.528 15.656C216.04 15.272 216.352 14.744 216.464 14.072ZM215.624 21.056C215.656 20.832 215.672 20.672 215.672 20.576C215.672 20 215.464 19.552 215.048 19.232C214.648 18.896 214.088 18.728 213.368 18.728H210.056L209.264 23.336H212.648C213.464 23.336 214.136 23.136 214.664 22.736C215.192 22.336 215.512 21.776 215.624 21.056ZM228.67 26.168C227.262 26.168 226.014 25.872 224.926 25.28C223.854 24.672 223.022 23.84 222.43 22.784C221.838 21.712 221.542 20.488 221.542 19.112C221.542 17.192 221.966 15.464 222.814 13.928C223.678 12.392 224.862 11.192 226.366 10.328C227.886 9.448 229.59 9.008 231.478 9.008C232.902 9.008 234.15 9.304 235.222 9.896C236.31 10.488 237.15 11.32 237.742 12.392C238.334 13.448 238.63 14.656 238.63 16.016C238.63 17.968 238.206 19.712 237.358 21.248C236.51 22.784 235.326 23.992 233.806 24.872C232.286 25.736 230.574 26.168 228.67 26.168ZM229.15 23.072C230.35 23.072 231.406 22.768 232.318 22.16C233.246 21.552 233.958 20.736 234.454 19.712C234.966 18.672 235.222 17.544 235.222 16.328C235.222 15.016 234.854 13.984 234.118 13.232C233.382 12.48 232.35 12.104 231.022 12.104C229.838 12.104 228.782 12.408 227.854 13.016C226.942 13.624 226.23 14.44 225.718 15.464C225.222 16.488 224.974 17.608 224.974 18.824C224.974 20.136 225.334 21.176 226.054 21.944C226.79 22.696 227.822 23.072 229.15 23.072ZM260.906 9.248L257.954 26H254.57L256.49 15.152L250.106 26H247.538L244.97 15.128L243.05 26H239.666L242.642 9.248H246.458L249.602 21.68L257.09 9.248H260.906ZM274.572 9.248L274.092 11.888H267.132L266.364 16.28H271.692L271.236 18.872H265.884L264.636 26H261.252L264.228 9.248H274.572ZM280.314 9.248L277.362 26H273.978L276.954 9.248H280.314ZM301.898 9.248L298.946 26H295.562L297.482 15.152L291.098 26H288.53L285.962 15.128L284.042 26H280.658L283.634 9.248H287.45L290.594 21.68L298.082 9.248H301.898Z" fill="white"></path><path d="M131.574 48L133.534 38.2H137.496C138.495 38.2 139.349 38.368 140.058 38.704C140.767 39.0307 141.309 39.4973 141.682 40.104C142.065 40.7107 142.256 41.4247 142.256 42.246C142.256 43.114 142.107 43.9027 141.808 44.612C141.519 45.3213 141.103 45.928 140.562 46.432C140.03 46.9267 139.391 47.314 138.644 47.594C137.897 47.8647 137.067 48 136.152 48H131.574ZM133.702 46.46H136.208C137.085 46.46 137.837 46.2827 138.462 45.928C139.097 45.564 139.582 45.074 139.918 44.458C140.254 43.842 140.422 43.142 140.422 42.358C140.422 41.826 140.305 41.364 140.072 40.972C139.839 40.58 139.489 40.2767 139.022 40.062C138.565 39.8473 137.991 39.74 137.3 39.74H135.046L133.702 46.46ZM145.954 42.274H150.84L150.546 43.772H145.66L145.954 42.274ZM145.254 46.474H150.798L150.49 48H143.14L145.1 38.2H152.254L151.946 39.726H146.598L145.254 46.474ZM155.725 48.14C155.212 48.14 154.713 48.0887 154.227 47.986C153.751 47.8833 153.313 47.748 152.911 47.58C152.519 47.4027 152.193 47.2067 151.931 46.992L152.701 45.564C152.972 45.788 153.28 45.9793 153.625 46.138C153.971 46.2967 154.335 46.418 154.717 46.502C155.109 46.586 155.501 46.628 155.893 46.628C156.369 46.628 156.785 46.572 157.139 46.46C157.494 46.348 157.765 46.1893 157.951 45.984C158.147 45.7787 158.245 45.5313 158.245 45.242C158.245 44.9807 158.157 44.7707 157.979 44.612C157.802 44.444 157.564 44.3087 157.265 44.206C156.976 44.094 156.654 43.9913 156.299 43.898C155.954 43.7953 155.604 43.6833 155.249 43.562C154.895 43.4313 154.573 43.2727 154.283 43.086C153.994 42.89 153.756 42.6427 153.569 42.344C153.392 42.0453 153.303 41.672 153.303 41.224C153.303 40.58 153.481 40.0247 153.835 39.558C154.199 39.082 154.699 38.7133 155.333 38.452C155.977 38.1907 156.724 38.06 157.573 38.06C158.208 38.06 158.81 38.13 159.379 38.27C159.949 38.41 160.439 38.6153 160.849 38.886L160.135 40.328C159.771 40.0853 159.361 39.8987 158.903 39.768C158.446 39.6373 157.97 39.572 157.475 39.572C156.99 39.572 156.57 39.6327 156.215 39.754C155.861 39.8753 155.59 40.0433 155.403 40.258C155.217 40.4727 155.119 40.7247 155.109 41.014C155.109 41.2847 155.198 41.504 155.375 41.672C155.553 41.8307 155.786 41.966 156.075 42.078C156.365 42.19 156.687 42.2973 157.041 42.4C157.396 42.4933 157.746 42.6007 158.091 42.722C158.446 42.8433 158.773 42.9973 159.071 43.184C159.37 43.3707 159.608 43.6087 159.785 43.898C159.963 44.178 160.051 44.5327 160.051 44.962C160.051 45.606 159.869 46.166 159.505 46.642C159.151 47.118 158.647 47.4867 157.993 47.748C157.349 48.0093 156.593 48.14 155.725 48.14ZM164.138 42.274H169.024L168.73 43.772H163.844L164.138 42.274ZM163.438 46.474H168.982L168.674 48H161.324L163.284 38.2H170.438L170.13 39.726H164.782L163.438 46.474ZM170.703 48L172.663 38.2H174.161L178.627 45.802L178.053 45.732L179.551 38.2H181.357L179.397 48H177.899L173.447 40.398L174.021 40.468L172.509 48H170.703ZM184.853 48L182.543 38.2H184.419L186.477 47.062H185.315L190.985 38.2H192.875L186.645 48H184.853ZM196.767 48.14C195.778 48.14 194.933 47.9627 194.233 47.608C193.533 47.2533 192.996 46.7633 192.623 46.138C192.259 45.5033 192.077 44.7753 192.077 43.954C192.077 43.1233 192.217 42.3533 192.497 41.644C192.777 40.9253 193.183 40.3 193.715 39.768C194.247 39.236 194.882 38.8207 195.619 38.522C196.356 38.214 197.178 38.06 198.083 38.06C199.063 38.06 199.903 38.2373 200.603 38.592C201.303 38.9467 201.84 39.4413 202.213 40.076C202.586 40.7013 202.773 41.4247 202.773 42.246C202.773 43.0767 202.628 43.8513 202.339 44.57C202.059 45.2793 201.653 45.9 201.121 46.432C200.589 46.964 199.954 47.384 199.217 47.692C198.489 47.9907 197.672 48.14 196.767 48.14ZM196.921 46.544C197.537 46.544 198.092 46.4367 198.587 46.222C199.082 45.998 199.502 45.6947 199.847 45.312C200.202 44.92 200.472 44.472 200.659 43.968C200.846 43.4547 200.939 42.918 200.939 42.358C200.939 41.826 200.822 41.3547 200.589 40.944C200.356 40.5333 200.015 40.216 199.567 39.992C199.119 39.768 198.568 39.656 197.915 39.656C197.308 39.656 196.753 39.768 196.249 39.992C195.754 40.2067 195.33 40.51 194.975 40.902C194.63 41.2847 194.364 41.7327 194.177 42.246C194 42.75 193.911 43.282 193.911 43.842C193.911 44.374 194.023 44.8453 194.247 45.256C194.48 45.6667 194.821 45.984 195.269 46.208C195.717 46.432 196.268 46.544 196.921 46.544ZM203.652 48L205.612 38.2H207.432L205.78 46.46H210.904L210.596 48H203.652ZM214.22 48L211.91 38.2H213.786L215.844 47.062H214.682L220.352 38.2H222.242L216.012 48H214.22ZM224.144 42.274H229.03L228.736 43.772H223.85L224.144 42.274ZM223.444 46.474H228.988L228.68 48H221.33L223.29 38.2H230.444L230.136 39.726H224.788L223.444 46.474ZM230.709 48L232.669 38.2H236.631C237.629 38.2 238.483 38.368 239.193 38.704C239.902 39.0307 240.443 39.4973 240.817 40.104C241.199 40.7107 241.391 41.4247 241.391 42.246C241.391 43.114 241.241 43.9027 240.943 44.612C240.653 45.3213 240.238 45.928 239.697 46.432C239.165 46.9267 238.525 47.314 237.779 47.594C237.032 47.8647 236.201 48 235.287 48H230.709ZM232.837 46.46H235.343C236.22 46.46 236.971 46.2827 237.597 45.928C238.231 45.564 238.717 45.074 239.053 44.458C239.389 43.842 239.557 43.142 239.557 42.358C239.557 41.826 239.44 41.364 239.207 40.972C238.973 40.58 238.623 40.2767 238.157 40.062C237.699 39.8473 237.125 39.74 236.435 39.74H234.181L232.837 46.46ZM247.175 48.14C246.186 48.14 245.341 47.9627 244.641 47.608C243.941 47.2533 243.405 46.7633 243.031 46.138C242.667 45.5033 242.485 44.7753 242.485 43.954C242.485 43.1233 242.625 42.3533 242.905 41.644C243.185 40.9253 243.591 40.3 244.123 39.768C244.655 39.236 245.29 38.8207 246.027 38.522C246.765 38.214 247.586 38.06 248.491 38.06C249.471 38.06 250.311 38.2373 251.011 38.592C251.711 38.9467 252.248 39.4413 252.621 40.076C252.995 40.7013 253.181 41.4247 253.181 42.246C253.181 43.0767 253.037 43.8513 252.747 44.57C252.467 45.2793 252.061 45.9 251.529 46.432C250.997 46.964 250.363 47.384 249.625 47.692C248.897 47.9907 248.081 48.14 247.175 48.14ZM247.329 46.544C247.945 46.544 248.501 46.4367 248.995 46.222C249.49 45.998 249.91 45.6947 250.255 45.312C250.61 44.92 250.881 44.472 251.067 43.968C251.254 43.4547 251.347 42.918 251.347 42.358C251.347 41.826 251.231 41.3547 250.997 40.944C250.764 40.5333 250.423 40.216 249.975 39.992C249.527 39.768 248.977 39.656 248.323 39.656C247.717 39.656 247.161 39.768 246.657 39.992C246.163 40.2067 245.738 40.51 245.383 40.902C245.038 41.2847 244.772 41.7327 244.585 42.246C244.408 42.75 244.319 43.282 244.319 43.842C244.319 44.374 244.431 44.8453 244.655 45.256C244.889 45.6667 245.229 45.984 245.677 46.208C246.125 46.432 246.676 46.544 247.329 46.544ZM254.06 48L256.02 38.2H259.828C261.014 38.2 261.928 38.4613 262.572 38.984C263.226 39.4973 263.552 40.2207 263.552 41.154C263.552 41.9753 263.361 42.6847 262.978 43.282C262.605 43.87 262.068 44.3273 261.368 44.654C260.668 44.9713 259.838 45.13 258.876 45.13H255.684L256.622 44.304L255.894 48H254.06ZM260.5 48L258.498 44.444H260.43L262.432 48H260.5ZM256.58 44.514L255.964 43.632H258.932C259.819 43.632 260.505 43.436 260.99 43.044C261.476 42.652 261.718 42.078 261.718 41.322C261.718 40.79 261.536 40.3933 261.172 40.132C260.818 39.8707 260.304 39.74 259.632 39.74H256.776L257.728 38.83L256.58 44.514ZM270.326 48L269.038 38.2H270.844L271.992 47.048H271.054L275.828 38.2H277.522L278.656 47.048H277.774L282.506 38.2H284.312L279.104 48H277.172L276.08 40.02H276.626L272.272 48H270.326ZM288.505 48.14C287.516 48.14 286.671 47.9627 285.971 47.608C285.271 47.2533 284.735 46.7633 284.361 46.138C283.997 45.5033 283.815 44.7753 283.815 43.954C283.815 43.1233 283.955 42.3533 284.235 41.644C284.515 40.9253 284.921 40.3 285.453 39.768C285.985 39.236 286.62 38.8207 287.357 38.522C288.095 38.214 288.916 38.06 289.821 38.06C290.801 38.06 291.641 38.2373 292.341 38.592C293.041 38.9467 293.578 39.4413 293.951 40.076C294.325 40.7013 294.511 41.4247 294.511 42.246C294.511 43.0767 294.367 43.8513 294.077 44.57C293.797 45.2793 293.391 45.9 292.859 46.432C292.327 46.964 291.693 47.384 290.955 47.692C290.227 47.9907 289.411 48.14 288.505 48.14ZM288.659 46.544C289.275 46.544 289.831 46.4367 290.325 46.222C290.82 45.998 291.24 45.6947 291.585 45.312C291.94 44.92 292.211 44.472 292.397 43.968C292.584 43.4547 292.677 42.918 292.677 42.358C292.677 41.826 292.561 41.3547 292.327 40.944C292.094 40.5333 291.753 40.216 291.305 39.992C290.857 39.768 290.307 39.656 289.653 39.656C289.047 39.656 288.491 39.768 287.987 39.992C287.493 40.2067 287.068 40.51 286.713 40.902C286.368 41.2847 286.102 41.7327 285.915 42.246C285.738 42.75 285.649 43.282 285.649 43.842C285.649 44.374 285.761 44.8453 285.985 45.256C286.219 45.6667 286.559 45.984 287.007 46.208C287.455 46.432 288.006 46.544 288.659 46.544ZM295.39 48L297.35 38.2H301.158C302.344 38.2 303.258 38.4613 303.902 38.984C304.556 39.4973 304.882 40.2207 304.882 41.154C304.882 41.9753 304.691 42.6847 304.308 43.282C303.935 43.87 303.398 44.3273 302.698 44.654C301.998 44.9713 301.168 45.13 300.206 45.13H297.014L297.952 44.304L297.224 48H295.39ZM301.83 48L299.828 44.444H301.76L303.762 48H301.83ZM297.91 44.514L297.294 43.632H300.262C301.149 43.632 301.835 43.436 302.32 43.044C302.806 42.652 303.048 42.078 303.048 41.322C303.048 40.79 302.866 40.3933 302.502 40.132C302.148 39.8707 301.634 39.74 300.962 39.74H298.106L299.058 38.83L297.91 44.514ZM305.631 48L307.591 38.2H311.553C312.551 38.2 313.405 38.368 314.115 38.704C314.824 39.0307 315.365 39.4973 315.739 40.104C316.121 40.7107 316.313 41.4247 316.313 42.246C316.313 43.114 316.163 43.9027 315.865 44.612C315.575 45.3213 315.16 45.928 314.619 46.432C314.087 46.9267 313.447 47.314 312.701 47.594C311.954 47.8647 311.123 48 310.209 48H305.631ZM307.759 46.46H310.265C311.142 46.46 311.893 46.2827 312.519 45.928C313.153 45.564 313.639 45.074 313.975 44.458C314.311 43.842 314.479 43.142 314.479 42.358C314.479 41.826 314.362 41.364 314.129 40.972C313.895 40.58 313.545 40.2767 313.079 40.062C312.621 39.8473 312.047 39.74 311.357 39.74H309.103L307.759 46.46ZM317.197 48L319.157 38.2H322.937C324.122 38.2 325.037 38.4613 325.681 38.984C326.334 39.5067 326.661 40.23 326.661 41.154C326.661 41.9847 326.47 42.7033 326.087 43.31C325.714 43.9073 325.177 44.3693 324.477 44.696C323.777 45.0133 322.946 45.172 321.985 45.172H318.793L319.759 44.304L319.017 48H317.197ZM319.717 44.514L319.073 43.632H322.055C322.932 43.632 323.614 43.436 324.099 43.044C324.584 42.652 324.827 42.078 324.827 41.322C324.827 40.79 324.645 40.3933 324.281 40.132C323.926 39.8707 323.413 39.74 322.741 39.74H319.899L320.851 38.83L319.717 44.514ZM327.219 48L329.179 38.2H332.987C334.172 38.2 335.087 38.4613 335.731 38.984C336.384 39.4973 336.711 40.2207 336.711 41.154C336.711 41.9753 336.519 42.6847 336.137 43.282C335.763 43.87 335.227 44.3273 334.527 44.654C333.827 44.9713 332.996 45.13 332.035 45.13H328.843L329.781 44.304L329.053 48H327.219ZM333.659 48L331.657 44.444H333.589L335.591 48H333.659ZM329.739 44.514L329.123 43.632H332.091C332.977 43.632 333.663 43.436 334.149 43.044C334.634 42.652 334.877 42.078 334.877 41.322C334.877 40.79 334.695 40.3933 334.331 40.132C333.976 39.8707 333.463 39.74 332.791 39.74H329.935L330.887 38.83L329.739 44.514ZM340.273 42.274H345.159L344.865 43.772H339.979L340.273 42.274ZM339.573 46.474H345.117L344.809 48H337.459L339.419 38.2H346.573L346.265 39.726H340.917L339.573 46.474ZM350.044 48.14C349.53 48.14 349.031 48.0887 348.546 47.986C348.07 47.8833 347.631 47.748 347.23 47.58C346.838 47.4027 346.511 47.2067 346.25 46.992L347.02 45.564C347.29 45.788 347.598 45.9793 347.944 46.138C348.289 46.2967 348.653 46.418 349.036 46.502C349.428 46.586 349.82 46.628 350.212 46.628C350.688 46.628 351.103 46.572 351.458 46.46C351.812 46.348 352.083 46.1893 352.27 45.984C352.466 45.7787 352.564 45.5313 352.564 45.242C352.564 44.9807 352.475 44.7707 352.298 44.612C352.12 44.444 351.882 44.3087 351.584 44.206C351.294 44.094 350.972 43.9913 350.618 43.898C350.272 43.7953 349.922 43.6833 349.568 43.562C349.213 43.4313 348.891 43.2727 348.602 43.086C348.312 42.89 348.074 42.6427 347.888 42.344C347.71 42.0453 347.622 41.672 347.622 41.224C347.622 40.58 347.799 40.0247 348.154 39.558C348.518 39.082 349.017 38.7133 349.652 38.452C350.296 38.1907 351.042 38.06 351.892 38.06C352.526 38.06 353.128 38.13 353.698 38.27C354.267 38.41 354.757 38.6153 355.168 38.886L354.454 40.328C354.09 40.0853 353.679 39.8987 353.222 39.768C352.764 39.6373 352.288 39.572 351.794 39.572C351.308 39.572 350.888 39.6327 350.534 39.754C350.179 39.8753 349.908 40.0433 349.722 40.258C349.535 40.4727 349.437 40.7247 349.428 41.014C349.428 41.2847 349.516 41.504 349.694 41.672C349.871 41.8307 350.104 41.966 350.394 42.078C350.683 42.19 351.005 42.2973 351.36 42.4C351.714 42.4933 352.064 42.6007 352.41 42.722C352.764 42.8433 353.091 42.9973 353.39 43.184C353.688 43.3707 353.926 43.6087 354.104 43.898C354.281 44.178 354.37 44.5327 354.37 44.962C354.37 45.606 354.188 46.166 353.824 46.642C353.469 47.118 352.965 47.4867 352.312 47.748C351.668 48.0093 350.912 48.14 350.044 48.14ZM358.848 48.14C358.335 48.14 357.836 48.0887 357.35 47.986C356.874 47.8833 356.436 47.748 356.034 47.58C355.642 47.4027 355.316 47.2067 355.054 46.992L355.824 45.564C356.095 45.788 356.403 45.9793 356.748 46.138C357.094 46.2967 357.458 46.418 357.84 46.502C358.232 46.586 358.624 46.628 359.016 46.628C359.492 46.628 359.908 46.572 360.262 46.46C360.617 46.348 360.888 46.1893 361.074 45.984C361.27 45.7787 361.368 45.5313 361.368 45.242C361.368 44.9807 361.28 44.7707 361.102 44.612C360.925 44.444 360.687 44.3087 360.388 44.206C360.099 44.094 359.777 43.9913 359.422 43.898C359.077 43.7953 358.727 43.6833 358.372 43.562C358.018 43.4313 357.696 43.2727 357.406 43.086C357.117 42.89 356.879 42.6427 356.692 42.344C356.515 42.0453 356.426 41.672 356.426 41.224C356.426 40.58 356.604 40.0247 356.958 39.558C357.322 39.082 357.822 38.7133 358.456 38.452C359.1 38.1907 359.847 38.06 360.696 38.06C361.331 38.06 361.933 38.13 362.502 38.27C363.072 38.41 363.562 38.6153 363.972 38.886L363.258 40.328C362.894 40.0853 362.484 39.8987 362.026 39.768C361.569 39.6373 361.093 39.572 360.598 39.572C360.113 39.572 359.693 39.6327 359.338 39.754C358.984 39.8753 358.713 40.0433 358.526 40.258C358.34 40.4727 358.242 40.7247 358.232 41.014C358.232 41.2847 358.321 41.504 358.498 41.672C358.676 41.8307 358.909 41.966 359.198 42.078C359.488 42.19 359.81 42.2973 360.164 42.4C360.519 42.4933 360.869 42.6007 361.214 42.722C361.569 42.8433 361.896 42.9973 362.194 43.184C362.493 43.3707 362.731 43.6087 362.908 43.898C363.086 44.178 363.174 44.5327 363.174 44.962C363.174 45.606 362.992 46.166 362.628 46.642C362.274 47.118 361.77 47.4867 361.116 47.748C360.472 48.0093 359.716 48.14 358.848 48.14ZM134.388 59.274H139.274L138.98 60.772H134.094L134.388 59.274ZM133.688 63.474H139.232L138.924 65H131.574L133.534 55.2H140.688L140.38 56.726H135.032L133.688 63.474ZM149.162 65.14C148.229 65.14 147.454 64.958 146.838 64.594C146.231 64.23 145.802 63.7213 145.55 63.068C145.307 62.4053 145.275 61.626 145.452 60.73L146.558 55.2H148.378L147.272 60.702C147.085 61.654 147.174 62.368 147.538 62.844C147.911 63.3107 148.513 63.544 149.344 63.544C150.119 63.544 150.744 63.32 151.22 62.872C151.696 62.4147 152.032 61.6867 152.228 60.688L153.334 55.2H155.112L154.006 60.814C153.717 62.2513 153.166 63.334 152.354 64.062C151.542 64.7807 150.478 65.14 149.162 65.14ZM154.255 65L159.421 59.442L159.295 60.478L156.425 55.2H158.357L160.513 59.218L159.701 59.176L163.369 55.2H165.441L160.583 60.464L160.625 59.428L163.677 65H161.731L159.449 60.73L160.275 60.772L156.439 65H154.255ZM163.313 66.4L170.509 53.212H172.161L164.965 66.4H163.313ZM174.893 65.14C173.959 65.14 173.185 64.958 172.569 64.594C171.962 64.23 171.533 63.7213 171.281 63.068C171.038 62.4053 171.005 61.626 171.183 60.73L172.289 55.2H174.109L173.003 60.702C172.816 61.654 172.905 62.368 173.269 62.844C173.642 63.3107 174.244 63.544 175.075 63.544C175.849 63.544 176.475 63.32 176.951 62.872C177.427 62.4147 177.763 61.6867 177.959 60.688L179.065 55.2H180.843L179.737 60.814C179.447 62.2513 178.897 63.334 178.085 64.062C177.273 64.7807 176.209 65.14 174.893 65.14ZM181.312 65L183.272 55.2H185.092L183.132 65H181.312ZM189.652 65L191.612 55.2H195.574C196.573 55.2 197.427 55.368 198.136 55.704C198.845 56.0307 199.387 56.4973 199.76 57.104C200.143 57.7107 200.334 58.4247 200.334 59.246C200.334 60.114 200.185 60.9027 199.886 61.612C199.597 62.3213 199.181 62.928 198.64 63.432C198.108 63.9267 197.469 64.314 196.722 64.594C195.975 64.8647 195.145 65 194.23 65H189.652ZM191.78 63.46H194.286C195.163 63.46 195.915 63.2827 196.54 62.928C197.175 62.564 197.66 62.074 197.996 61.458C198.332 60.842 198.5 60.142 198.5 59.358C198.5 58.826 198.383 58.364 198.15 57.972C197.917 57.58 197.567 57.2767 197.1 57.062C196.643 56.8473 196.069 56.74 195.378 56.74H193.124L191.78 63.46ZM204.033 59.274H208.919L208.625 60.772H203.739L204.033 59.274ZM203.333 63.474H208.877L208.569 65H201.219L203.179 55.2H210.333L210.025 56.726H204.677L203.333 63.474ZM213.803 65.14C213.29 65.14 212.791 65.0887 212.305 64.986C211.829 64.8833 211.391 64.748 210.989 64.58C210.597 64.4027 210.271 64.2067 210.009 63.992L210.779 62.564C211.05 62.788 211.358 62.9793 211.703 63.138C212.049 63.2967 212.413 63.418 212.795 63.502C213.187 63.586 213.579 63.628 213.971 63.628C214.447 63.628 214.863 63.572 215.217 63.46C215.572 63.348 215.843 63.1893 216.029 62.984C216.225 62.7787 216.323 62.5313 216.323 62.242C216.323 61.9807 216.235 61.7707 216.057 61.612C215.88 61.444 215.642 61.3087 215.343 61.206C215.054 61.094 214.732 60.9913 214.377 60.898C214.032 60.7953 213.682 60.6833 213.327 60.562C212.973 60.4313 212.651 60.2727 212.361 60.086C212.072 59.89 211.834 59.6427 211.647 59.344C211.47 59.0453 211.381 58.672 211.381 58.224C211.381 57.58 211.559 57.0247 211.913 56.558C212.277 56.082 212.777 55.7133 213.411 55.452C214.055 55.1907 214.802 55.06 215.651 55.06C216.286 55.06 216.888 55.13 217.457 55.27C218.027 55.41 218.517 55.6153 218.927 55.886L218.213 57.328C217.849 57.0853 217.439 56.8987 216.981 56.768C216.524 56.6373 216.048 56.572 215.553 56.572C215.068 56.572 214.648 56.6327 214.293 56.754C213.939 56.8753 213.668 57.0433 213.481 57.258C213.295 57.4727 213.197 57.7247 213.187 58.014C213.187 58.2847 213.276 58.504 213.453 58.672C213.631 58.8307 213.864 58.966 214.153 59.078C214.443 59.19 214.765 59.2973 215.119 59.4C215.474 59.4933 215.824 59.6007 216.169 59.722C216.524 59.8433 216.851 59.9973 217.149 60.184C217.448 60.3707 217.686 60.6087 217.863 60.898C218.041 61.178 218.129 61.5327 218.129 61.962C218.129 62.606 217.947 63.166 217.583 63.642C217.229 64.118 216.725 64.4867 216.071 64.748C215.427 65.0093 214.671 65.14 213.803 65.14ZM219.402 65L221.362 55.2H223.182L221.222 65H219.402ZM228.843 65.14C227.863 65.14 227.018 64.9627 226.309 64.608C225.599 64.2533 225.049 63.7633 224.657 63.138C224.274 62.5033 224.083 61.7753 224.083 60.954C224.083 60.1233 224.223 59.3533 224.503 58.644C224.792 57.9253 225.203 57.3 225.735 56.768C226.267 56.236 226.906 55.8207 227.653 55.522C228.409 55.214 229.249 55.06 230.173 55.06C231.069 55.06 231.848 55.2 232.511 55.48C233.173 55.76 233.705 56.1567 234.107 56.67L232.791 57.762C232.464 57.37 232.077 57.09 231.629 56.922C231.19 56.7447 230.677 56.656 230.089 56.656C229.454 56.656 228.88 56.7633 228.367 56.978C227.853 57.1833 227.415 57.4773 227.051 57.86C226.687 58.2427 226.407 58.6907 226.211 59.204C226.015 59.708 225.917 60.254 225.917 60.842C225.917 61.374 226.033 61.8453 226.267 62.256C226.5 62.6667 226.85 62.984 227.317 63.208C227.783 63.432 228.362 63.544 229.053 63.544C229.566 63.544 230.047 63.46 230.495 63.292C230.952 63.1147 231.381 62.8533 231.783 62.508L232.497 63.936C232.011 64.3187 231.447 64.6173 230.803 64.832C230.168 65.0373 229.515 65.14 228.843 65.14ZM230.845 63.656L231.573 59.988H233.295L232.497 63.936L230.845 63.656ZM234.687 65L236.647 55.2H238.145L242.611 62.802L242.037 62.732L243.535 55.2H245.341L243.381 65H241.883L237.431 57.398L238.005 57.468L236.493 65H234.687ZM248.835 59.274H253.721L253.427 60.772H248.541L248.835 59.274ZM248.135 63.474H253.679L253.371 65H246.021L247.981 55.2H255.135L254.827 56.726H249.479L248.135 63.474ZM255.4 65L257.36 55.2H261.168C262.354 55.2 263.268 55.4613 263.912 55.984C264.566 56.4973 264.892 57.2207 264.892 58.154C264.892 58.9753 264.701 59.6847 264.318 60.282C263.945 60.87 263.408 61.3273 262.708 61.654C262.008 61.9713 261.178 62.13 260.216 62.13H257.024L257.962 61.304L257.234 65H255.4ZM261.84 65L259.838 61.444H261.77L263.772 65H261.84ZM257.92 61.514L257.304 60.632H260.272C261.159 60.632 261.845 60.436 262.33 60.044C262.816 59.652 263.058 59.078 263.058 58.322C263.058 57.79 262.876 57.3933 262.512 57.132C262.158 56.8707 261.644 56.74 260.972 56.74H258.116L259.068 55.83L257.92 61.514Z" fill="#00CFD5"></path><path d="M111.001 17.1375C111.001 19.4225 110.646 21.4711 109.937 23.2833C109.307 25.0956 108.401 26.7108 107.219 28.1291C106.037 29.5474 104.658 30.8081 103.082 31.9112C101.506 33.0143 99.7729 34.0386 97.8819 34.9841C98.7486 35.2993 99.7729 35.8114 100.955 36.5206C102.137 37.1509 103.279 38.057 104.382 39.2389C105.485 40.4208 106.392 41.9573 107.101 43.8483C107.889 45.6605 108.283 47.9061 108.283 50.5851C108.283 54.1308 107.534 57.4007 106.037 60.3948C104.54 63.389 102.294 65.9891 99.3002 68.1953C96.3848 70.3227 92.7604 72.0168 88.4267 73.2775C84.1719 74.4594 79.2474 75.0503 73.6531 75.0503H38.5508L54.5064 0H85.5902C88.6631 0 91.6966 0.236381 94.6908 0.709142C97.7637 1.10311 100.482 1.93043 102.846 3.19112C105.288 4.45181 107.258 6.22465 108.755 8.50965C110.252 10.7158 111.001 13.5918 111.001 17.1375ZM78.8534 31.4384C80.5868 31.4384 82.0445 30.9263 83.2264 29.9019C84.4871 28.8776 85.5114 27.6169 86.2993 26.1199C87.0873 24.544 87.6782 22.8894 88.0722 21.1559C88.4661 19.3437 88.6631 17.7284 88.6631 16.3102C88.6631 14.0252 88.1116 12.0947 87.0085 10.5189C85.9842 8.86421 84.3295 8.03689 82.0445 8.03689H78.4988L73.4167 31.4384H78.8534ZM70.3438 67.6044C72.7075 67.6044 74.6774 66.9346 76.2532 65.5952C77.8291 64.2557 79.1292 62.601 80.1535 60.6312C81.1778 58.6614 81.8869 56.6128 82.2809 54.4854C82.7536 52.2791 82.99 50.3487 82.99 48.6941C82.99 45.9363 82.3991 43.7695 81.2172 42.1936C80.1141 40.539 78.3018 39.7117 75.7805 39.7117H71.4075L65.6162 67.6044H70.3438Z" fill="white"></path><path d="M85.5898 0.5C88.637 0.5 91.6453 0.734492 94.6133 1.20312L94.627 1.20508C97.6489 1.59251 100.308 2.40385 102.61 3.63184V3.63281L102.616 3.63574C104.983 4.85708 106.887 6.57097 108.337 8.7832V8.78418L108.342 8.79004C109.767 10.8901 110.501 13.6597 110.501 17.1377C110.501 19.3709 110.154 21.3566 109.472 23.1016L109.468 23.1104L109.465 23.1191C108.854 24.8766 107.977 26.4385 106.835 27.8086C105.683 29.1914 104.337 30.4232 102.796 31.502C101.242 32.5897 99.5294 33.6015 97.6582 34.5371L96.6182 35.0566L97.7109 35.4541C98.5368 35.7544 99.5309 36.2494 100.697 36.9492L100.708 36.9561L100.72 36.9619C101.844 37.5616 102.944 38.4305 104.017 39.5801C105.065 40.7037 105.941 42.1791 106.633 44.0234L106.637 44.0361L106.643 44.0479C107.395 45.779 107.782 47.9518 107.782 50.585C107.782 54.0576 107.05 57.2504 105.59 60.1709C104.223 62.9045 102.212 65.3094 99.5459 67.3828L99.0059 67.791C96.3261 69.7465 93.0216 71.3387 89.083 72.5586L88.293 72.7959C84.0916 73.963 79.2137 74.5508 73.6533 74.5508H39.168L54.9111 0.5H85.5898ZM70.918 39.6104L65.127 67.5029L65.002 68.1045H70.3438C72.8081 68.1045 74.8981 67.4037 76.5771 65.9766C78.2057 64.5923 79.5448 62.885 80.5967 60.8623C81.6432 58.8497 82.3692 56.7535 82.7725 54.5762L82.7715 54.5752C83.2471 52.3522 83.4902 50.3905 83.4902 48.6943C83.4902 45.8706 82.8854 43.5846 81.6172 41.8936C80.3951 40.0782 78.4072 39.2119 75.7803 39.2119H71.001L70.918 39.6104ZM78.0098 7.93066L72.9277 31.332L72.7969 31.9385H78.8535C80.6931 31.9385 82.271 31.3919 83.5537 30.2803L83.5527 30.2793C84.8626 29.2124 85.9266 27.9022 86.7422 26.3525L86.7461 26.3438C87.5521 24.7317 88.1568 23.0388 88.5596 21.2666L88.5605 21.2617C88.9598 19.4249 89.163 17.7733 89.1631 16.3105C89.1631 14.0908 88.6596 12.1629 87.6309 10.5508L87.418 10.2324C86.2842 8.41895 84.457 7.53721 82.0449 7.53711H78.0957L78.0098 7.93066Z" stroke="#AFAFAF" stroke-opacity="0.4"></path><path d="M25.5289 75.0503H0L15.9556 0H41.6027L25.5289 75.0503Z" fill="white"></path><path d="M40.9844 0.5L25.125 74.5508H0.617188L16.3604 0.5H40.9844Z" stroke="#AFAFAF" stroke-opacity="0.4"></path></svg>